<svg xmlns="http://www.w3.org/2000/svg" fill="currentColor" viewBox="0 0 400 600"><path d="M200 10 C220 15, 250 20, 270 35 C290 50, 310 70, 320 95 C330 120, 335 145, 340 170 C345 195, 348 220, 350 250 C352 280, 350 310, 345 340 C340 370, 330 395, 315 420 C300 445, 280 465, 255 485 C230 505, 200 520, 175 540 C150 560, 130 575, 115 585 C100 595, 95 598, 90 595 C85 592, 85 585, 90 575 C95 565, 105 550, 110 530 C115 510, 115 485, 110 460 C105 435, 95 410, 85 385 C75 360, 65 335, 60 310 C55 285, 55 260, 60 235 C65 210, 75 185, 90 165 C105 145, 125 130, 145 115 C165 100, 185 85, 195 65 C205 45, 200 25, 200 10 Z M180 50 C175 55, 165 65, 160 80 C155 95, 155 115, 160 130 C165 145, 175 155, 185 160 C195 165, 200 165, 200 160 C200 155, 195 145, 190 135 C185 125, 180 110, 180 95 C180 80, 185 65, 180 50 Z"/></svg>